<svg width="19" height="31" viewBox="0 0 19 31" fill="none" xmlns="http://www.w3.org/2000/svg">
<path d="M0.000976563 19.7119C0.00226437 19.7123 0.00476608 19.7128 0.0078125 19.7139C0.0145213 19.7162 0.0254118 19.7205 0.0400391 19.7256C0.0696726 19.736 0.115594 19.7516 0.174805 19.7734C0.293544 19.8173 0.46797 19.885 0.68457 19.9746C1.11873 20.1543 1.71908 20.4239 2.37793 20.7832C3.71426 21.5121 5.21341 22.5663 6.11328 23.916C7.05815 25.3333 7.65623 26.8831 8.01855 28.0908C8.19888 28.6919 8.31909 29.2022 8.39355 29.5596C8.43071 29.738 8.45643 29.8779 8.47266 29.9717C8.48072 30.0183 8.48665 30.0534 8.49023 30.0762C8.49202 30.0875 8.4934 30.0966 8.49414 30.1016C8.49447 30.1038 8.49499 30.1056 8.49512 30.1064L9.2373 30.0527L9.97949 30.1064C9.97961 30.1057 9.98013 30.1038 9.98047 30.1016C9.98121 30.0966 9.98259 30.0875 9.98438 30.0762C9.98796 30.0534 9.99389 30.0183 10.002 29.9717C10.0182 29.8779 10.0439 29.738 10.0811 29.5596C10.1555 29.2022 10.2757 28.6919 10.4561 28.0908C10.8184 26.8831 11.4165 25.3333 12.3613 23.916C13.2611 22.5663 14.7604 21.5121 16.0967 20.7832C16.7555 20.4239 17.3559 20.1543 17.79 19.9746C18.0066 19.885 18.181 19.8173 18.2998 19.7734C18.359 19.7516 18.4049 19.736 18.4346 19.7256C18.4492 19.7205 18.46 19.7162 18.4668 19.7139C18.4698 19.7128 18.4723 19.7123 18.4736 19.7119L18.4746 19.7109L18 18.2891H17.998C17.9971 18.2893 17.9955 18.2896 17.9941 18.29C17.9911 18.2911 17.9865 18.2932 17.9814 18.2949C17.9712 18.2984 17.9566 18.3032 17.9385 18.3096C17.9013 18.3226 17.8477 18.3423 17.7803 18.3672C17.6452 18.4171 17.452 18.4902 17.2158 18.5879C16.7439 18.7832 16.0937 19.0764 15.3779 19.4668C13.9644 20.2379 12.2133 21.434 11.1133 23.084C10.6691 23.7502 10.2989 24.4386 9.9873 25.1074L9.9873 0L8.4873 0L8.4873 25.1074C8.17575 24.4386 7.8055 23.7502 7.36133 23.084C6.26125 21.4339 4.51023 20.2379 3.09668 19.4668C2.38087 19.0764 1.73072 18.7832 1.25879 18.5879C1.02261 18.4902 0.829387 18.4171 0.694336 18.3672C0.626864 18.3423 0.573296 18.3226 0.536133 18.3096C0.518011 18.3032 0.503428 18.2984 0.493164 18.2949C0.488068 18.2932 0.483479 18.2911 0.480469 18.29C0.479042 18.2896 0.47749 18.2894 0.476563 18.2891H0.474609L0 19.7109L0.000976563 19.7119Z" fill="black"/>
</svg>
